<svg id="Layer_1" data-name="Layer 1" xmlns="http://www.w3.org/2000/svg" viewBox="0 0 272.74 147.25"><defs><style>.cls-1,.cls-2{fill:#292b33;stroke:#292b33;stroke-miterlimit:10;}.cls-2{stroke-width:0.25px;}</style></defs><path class="cls-1" d="M7.89,72.31a17,17,0,0,1,1.24-6.75,12.72,12.72,0,0,1,3.41-4.7,14.13,14.13,0,0,1,5-2.76,20.59,20.59,0,0,1,6.17-.9,30.79,30.79,0,0,1,4.18.28,27.48,27.48,0,0,1,4.42,1l-1.17,4.4a17,17,0,0,0-3.75-1A26.15,26.15,0,0,0,24,61.72a14.82,14.82,0,0,0-4.21.59A8.76,8.76,0,0,0,14,67.45a12.39,12.39,0,0,0-.86,4.86A12.19,12.19,0,0,0,14,77a8.56,8.56,0,0,0,2.26,3.22,9.6,9.6,0,0,0,3.5,1.89,15.63,15.63,0,0,0,4.52.62,33.38,33.38,0,0,0,3.81-.22,20.11,20.11,0,0,0,4-1l.75,4.27A22.29,22.29,0,0,1,28.39,87a33.07,33.07,0,0,1-4.83.34,20,20,0,0,1-6.35-1,13.86,13.86,0,0,1-5-2.82A12.51,12.51,0,0,1,9,78.85,17.16,17.16,0,0,1,7.89,72.31Z"/><path class="cls-1" d="M63.12,72.25a18.65,18.65,0,0,1-1,6.16,14.11,14.11,0,0,1-2.7,4.74,11.87,11.87,0,0,1-4.15,3.06,12.57,12.57,0,0,1-5.26,1.09,12.23,12.23,0,0,1-5.17-1.09,12,12,0,0,1-4.12-3.06,14.26,14.26,0,0,1-2.69-4.74,18.65,18.65,0,0,1-1-6.16,18.87,18.87,0,0,1,1-6.19,13.87,13.87,0,0,1,2.69-4.74,12.29,12.29,0,0,1,9.29-4.12,12.57,12.57,0,0,1,5.26,1.09,12,12,0,0,1,4.15,3,13.73,13.73,0,0,1,2.7,4.74A18.87,18.87,0,0,1,63.12,72.25Zm-5.27,0a12.65,12.65,0,0,0-2.1-7.71,6.76,6.76,0,0,0-5.7-2.82,6.59,6.59,0,0,0-5.6,2.82,12.71,12.71,0,0,0-2.08,7.71,12.6,12.6,0,0,0,2.08,7.65,6.59,6.59,0,0,0,5.6,2.82,6.76,6.76,0,0,0,5.7-2.82A12.54,12.54,0,0,0,57.85,72.25Z"/><path class="cls-1" d="M69,58.69a49.49,49.49,0,0,1,5.54-1,38.41,38.41,0,0,1,5.17-.38q5.76,0,8.7,3t2.94,9.53V86.62H86.24V70.7a17,17,0,0,0-.49-4.52,6.5,6.5,0,0,0-1.4-2.69,4.64,4.64,0,0,0-2.16-1.33,9.74,9.74,0,0,0-2.76-.38,24.84,24.84,0,0,0-2.63.16c-.93.1-1.83.24-2.69.4V86.62H69Z"/><path class="cls-1" d="M122.78,57.88q-1.11,4-2.54,7.9t-2.91,7.55q-1.48,3.69-3,7t-3,6.26h-4.64q-2.91-5.82-5.88-13.26a156.24,156.24,0,0,1-5.27-15.48h5.58q.73,2.73,1.7,5.76t2,6.07q1.05,3,2.14,5.85t2.13,5q1.06-2.23,2.2-5t2.26-5.85q1.13-3,2.14-6.07t1.76-5.76Z"/><path class="cls-1" d="M138.82,57.2q5.82,0,9,3.62t3.16,11v1.79H130.4a9.44,9.44,0,0,0,2.94,6.78q2.63,2.33,7.4,2.33a21.3,21.3,0,0,0,4.64-.44,13.48,13.48,0,0,0,2.91-.93l.68,4.34a15.18,15.18,0,0,1-3.34,1,24.42,24.42,0,0,1-5.45.56,17.11,17.11,0,0,1-6.53-1.15A12.88,12.88,0,0,1,129,83a12.59,12.59,0,0,1-2.78-4.73,18.6,18.6,0,0,1-.93-6,17.54,17.54,0,0,1,1.17-6.69,13.9,13.9,0,0,1,3.1-4.7,12.77,12.77,0,0,1,4.33-2.79A13.72,13.72,0,0,1,138.82,57.2Zm6.93,12.26a8.36,8.36,0,0,0-1.92-5.79,6.5,6.5,0,0,0-5.07-2.13,7.45,7.45,0,0,0-3.25.68A8,8,0,0,0,133,64a8.61,8.61,0,0,0-1.67,2.54,10.2,10.2,0,0,0-.81,2.91Z"/><path class="cls-1" d="M156,86.62V59.43a39.19,39.19,0,0,1,12.76-2.17c1.32,0,2.58.06,3.78.16a29,29,0,0,1,4,.65l-.93,4.52a20.87,20.87,0,0,0-3.5-.71,30.85,30.85,0,0,0-3.31-.16,29.06,29.06,0,0,0-7.68,1.06V86.62Z"/><path class="cls-1" d="M196.83,79.43a3.12,3.12,0,0,0-1.27-2.54,12.85,12.85,0,0,0-3.16-1.73c-1.26-.5-2.63-1-4.12-1.45a23.24,23.24,0,0,1-4.12-1.77,10.75,10.75,0,0,1-3.15-2.6,6.12,6.12,0,0,1-1.27-4,7.2,7.2,0,0,1,2.81-5.79c1.88-1.54,4.82-2.32,8.83-2.32a37.26,37.26,0,0,1,4.86.34,27.47,27.47,0,0,1,4.3.9L199.61,63a9.87,9.87,0,0,0-1.36-.52,17.8,17.8,0,0,0-2-.5c-.74-.14-1.54-.26-2.38-.34s-1.67-.12-2.45-.12c-4.46,0-6.69,1.21-6.69,3.65a2.63,2.63,0,0,0,1.27,2.2A15,15,0,0,0,189.21,69c1.28.5,2.66,1,4.15,1.52a22.74,22.74,0,0,1,4.15,1.89,11.38,11.38,0,0,1,3.19,2.69,6.19,6.19,0,0,1,1.27,4,6.94,6.94,0,0,1-3,6q-3,2.15-9.59,2.14a28,28,0,0,1-5.46-.5,22.37,22.37,0,0,1-4.7-1.48l1-4.65a29.23,29.23,0,0,0,4.55,1.64,19.08,19.08,0,0,0,5.11.65C194.5,83,196.83,81.79,196.83,79.43Z"/><path class="cls-1" d="M213,87.3V62.16h-8.3V57.88h13.38V87.3Zm1.3-33.88a3.91,3.91,0,0,1-2.78-1.11,4.49,4.49,0,0,1,0-6.07,4.09,4.09,0,0,1,5.6,0,4.58,4.58,0,0,1,0,6.07A3.88,3.88,0,0,1,214.33,53.42Z"/><path class="cls-1" d="M235.9,57.2a15.75,15.75,0,0,1,5.42.81,9.11,9.11,0,0,1,3.56,2.23,7.9,7.9,0,0,1,1.92,3.46,17,17,0,0,1,.56,4.46v18c-1.2.21-2.78.46-4.74.74a41.18,41.18,0,0,1-6,.44,25.58,25.58,0,0,1-4.58-.41,11.73,11.73,0,0,1-4-1.42,7.7,7.7,0,0,1-2.79-2.82,9,9,0,0,1-1.05-4.58,7.67,7.67,0,0,1,1.08-4.18,8.72,8.72,0,0,1,2.79-2.75,11.94,11.94,0,0,1,3.9-1.52,21.37,21.37,0,0,1,4.43-.47,26.21,26.21,0,0,1,5.94.68V68.41a10.91,10.91,0,0,0-.28-2.51A5.53,5.53,0,0,0,241,63.7a5.42,5.42,0,0,0-2.1-1.58,8.66,8.66,0,0,0-3.44-.58,25.2,25.2,0,0,0-4.64.37,21.46,21.46,0,0,0-3,.74l-.62-4.21a13.93,13.93,0,0,1,3.5-.87A36,36,0,0,1,235.9,57.2ZM236.4,83c1.28,0,2.42,0,3.44-.12s1.84-.19,2.5-.31V74a14.76,14.76,0,0,0-2.38-.49A21.26,21.26,0,0,0,237,73.3a18.32,18.32,0,0,0-2.79.22,7.58,7.58,0,0,0-2.41.77,5.17,5.17,0,0,0-1.74,1.46A3.66,3.66,0,0,0,229.4,78a4.07,4.07,0,0,0,1.89,3.87A10.29,10.29,0,0,0,236.4,83Z"/><rect class="cls-1" x="204.73" y="57.88" width="8.27" height="4.27"/><path class="cls-2" d="M89.78,105V98.12A9.94,9.94,0,0,1,93,97.58c.33,0,.65,0,1,0a7.08,7.08,0,0,1,1,.16l-.24,1.14a6,6,0,0,0-.88-.18c-.25,0-.53,0-.83,0a7.32,7.32,0,0,0-1.94.27v6Z"/><path class="cls-2" d="M99.05,97.56a2.83,2.83,0,0,1,2.26.92,4.11,4.11,0,0,1,.8,2.77v.45H96.93a2.39,2.39,0,0,0,.74,1.71,2.71,2.71,0,0,0,1.86.58,5.09,5.09,0,0,0,1.18-.11,3.52,3.52,0,0,0,.73-.23l.17,1.09a3.92,3.92,0,0,1-.84.27,6.44,6.44,0,0,1-1.38.14,4.36,4.36,0,0,1-1.64-.29,3.22,3.22,0,0,1-1.18-.79,3.15,3.15,0,0,1-.7-1.19,4.64,4.64,0,0,1-.24-1.51,4.31,4.31,0,0,1,.3-1.68,3.52,3.52,0,0,1,.78-1.19,3.18,3.18,0,0,1,1.09-.7A3.39,3.39,0,0,1,99.05,97.56Zm1.75,3.09a2.12,2.12,0,0,0-.48-1.46A1.64,1.64,0,0,0,99,98.66a1.8,1.8,0,0,0-.82.17,2,2,0,0,0-.64.45,2.53,2.53,0,0,0-.42.64,2.74,2.74,0,0,0-.2.73Z"/><path class="cls-2" d="M103.27,101.37a4.23,4.23,0,0,1,.31-1.7,3.26,3.26,0,0,1,.86-1.19,3.47,3.47,0,0,1,1.27-.69,5.19,5.19,0,0,1,1.55-.23,9.43,9.43,0,0,1,1.06.07,7.63,7.63,0,0,1,1.11.26l-.3,1.11a3.72,3.72,0,0,0-.94-.24,6.36,6.36,0,0,0-.87-.06,3.72,3.72,0,0,0-1.06.15,2.32,2.32,0,0,0-.86.47,2.23,2.23,0,0,0-.59.83,3,3,0,0,0-.22,1.22,3,3,0,0,0,.21,1.18,2.06,2.06,0,0,0,.56.81,2.54,2.54,0,0,0,.89.48,4,4,0,0,0,1.14.15,7.52,7.52,0,0,0,1,0,5.52,5.52,0,0,0,1-.24l.19,1.07a4.78,4.78,0,0,1-1.11.29,7.68,7.68,0,0,1-1.22.09,5.11,5.11,0,0,1-1.6-.24,3.44,3.44,0,0,1-1.24-.71,3.33,3.33,0,0,1-.82-1.18A4.42,4.42,0,0,1,103.27,101.37Z"/><path class="cls-2" d="M111,105V98.12a10,10,0,0,1,3.22-.54c.33,0,.65,0,1,0a6.86,6.86,0,0,1,1,.16l-.23,1.14a6.37,6.37,0,0,0-.89-.18c-.25,0-.53,0-.83,0a7.32,7.32,0,0,0-1.94.27v6Z"/><path class="cls-2" d="M123.08,104.77A11.45,11.45,0,0,1,122,105a9.7,9.7,0,0,1-1.63.12,3.4,3.4,0,0,1-1.37-.24,2.12,2.12,0,0,1-.89-.69,2.68,2.68,0,0,1-.49-1,6.13,6.13,0,0,1-.14-1.34V97.73h1.28v3.8a3.35,3.35,0,0,0,.4,1.9,1.5,1.5,0,0,0,1.33.56h.42l.4,0,.32,0a.81.81,0,0,0,.19,0V97.73h1.3Z"/><path class="cls-2" d="M132.36,97.73h3.06v1.08h-3.06v3.37a4.23,4.23,0,0,0,.08.89,1.27,1.27,0,0,0,.26.56,1,1,0,0,0,.46.29,2.63,2.63,0,0,0,.68.07,3.71,3.71,0,0,0,.91-.09,3.37,3.37,0,0,0,.65-.25l.19,1.09a5.25,5.25,0,0,1-.69.25,3.66,3.66,0,0,1-1.18.16,3.86,3.86,0,0,1-1.33-.19,1.69,1.69,0,0,1-.8-.56,2.19,2.19,0,0,1-.4-.93,7,7,0,0,1-.11-1.29V98.81h-1.53V97.73h1.53v-2l1.28-.22Z"/><path class="cls-2" d="M137,97.94a5,5,0,0,1,1.77-.36,2.65,2.65,0,0,1,.85.13,1.88,1.88,0,0,1,.68.41,2.22,2.22,0,0,1,1.43-.54,1.87,1.87,0,0,1,.71.14,1.53,1.53,0,0,1,.59.42,2.11,2.11,0,0,1,.42.7,3,3,0,0,1,.15,1V105h-1.17V99.79a1.25,1.25,0,0,0-.25-.85.76.76,0,0,0-.62-.3.92.92,0,0,0-.39.09,1,1,0,0,0-.37.3,3.32,3.32,0,0,1,.09.8v2.35H139.7V99.81a1.87,1.87,0,0,0-.17-.86.7.7,0,0,0-.67-.31,2.22,2.22,0,0,0-.71.14V105H137Z"/><path class="cls-2" d="M148.28,97.56a2.83,2.83,0,0,1,2.26.92,4.11,4.11,0,0,1,.8,2.77v.45h-5.18a2.35,2.35,0,0,0,.74,1.71,2.71,2.71,0,0,0,1.86.58,5,5,0,0,0,1.17-.11,3.64,3.64,0,0,0,.74-.23l.17,1.09a3.86,3.86,0,0,1-.85.27,6.28,6.28,0,0,1-1.37.14,4.46,4.46,0,0,1-1.65-.29,3.27,3.27,0,0,1-1.17-.79,3.17,3.17,0,0,1-.71-1.19,4.92,4.92,0,0,1-.23-1.51,4.31,4.31,0,0,1,.3-1.68,3.24,3.24,0,0,1,.78-1.19,3.09,3.09,0,0,1,1.09-.7A3.35,3.35,0,0,1,148.28,97.56Zm1.75,3.09a2.13,2.13,0,0,0-.49-1.46,1.63,1.63,0,0,0-1.28-.53,1.85,1.85,0,0,0-.82.17,2,2,0,0,0-.63.45,2.09,2.09,0,0,0-.42.64,2.41,2.41,0,0,0-.2.73Z"/><path class="cls-2" d="M152.65,97.94a11.51,11.51,0,0,1,1.4-.27,10,10,0,0,1,1.3-.09,2.94,2.94,0,0,1,2.19.75,3.29,3.29,0,0,1,.74,2.4V105H157v-4a4.41,4.41,0,0,0-.12-1.14,1.74,1.74,0,0,0-.35-.68,1.22,1.22,0,0,0-.55-.34,2.5,2.5,0,0,0-.69-.09,5.33,5.33,0,0,0-.67,0c-.23,0-.46.06-.68.1V105h-1.29Z"/><path class="cls-2" d="M162.24,97.73h3.06v1.08h-3.06v3.37a4.23,4.23,0,0,0,.08.89,1.27,1.27,0,0,0,.26.56,1,1,0,0,0,.46.29,2.68,2.68,0,0,0,.68.07,3.08,3.08,0,0,0,1.57-.34l.18,1.09a5.25,5.25,0,0,1-.69.25,3.66,3.66,0,0,1-1.18.16,3.86,3.86,0,0,1-1.33-.19,1.69,1.69,0,0,1-.8-.56,2.19,2.19,0,0,1-.4-.93,7,7,0,0,1-.11-1.29V98.81h-1.53V97.73H161v-2l1.28-.22Z"/><path class="cls-2" d="M126.81,105.13V98.81h-3.89V97.73h5.17v7.4Zm.32-8.52a1,1,0,0,1-.7-.28,1.15,1.15,0,0,1,0-1.53,1,1,0,0,1,.7-.28,1,1,0,0,1,.71.28,1.15,1.15,0,0,1,0,1.53A1,1,0,0,1,127.13,96.61Z"/></svg>