<svg id="Layer_1" data-name="Layer 1" xmlns="http://www.w3.org/2000/svg" xmlns:xlink="http://www.w3.org/1999/xlink" viewBox="0 0 325 75.86141"><defs><style>.cls-1{filter:url(#luminosity-noclip);}.cls-2{stroke:#000;stroke-width:7px;}.cls-2,.cls-3,.cls-7,.cls-8{stroke-miterlimit:10;}.cls-3,.cls-4,.cls-8{fill:#292b33;}.cls-3,.cls-7,.cls-8{stroke:#292b33;}.cls-5{mask:url(#mask);}.cls-6{mask:url(#mask-2);}.cls-7{fill:none;stroke-width:5px;}.cls-8{stroke-width:0.25px;}.cls-9{filter:url(#luminosity-noclip-2);}</style><filter id="luminosity-noclip" x="9.38862" y="8.02862" width="51.91095" height="48.79092" filterUnits="userSpaceOnUse" color-interpolation-filters="sRGB"><feFlood flood-color="#fff" result="bg"/><feBlend in="SourceGraphic" in2="bg"/></filter><mask id="mask" x="9.38862" y="8.02862" width="51.91095" height="48.79092" maskUnits="userSpaceOnUse"><path class="cls-1" d="M60.74017,36.86519a14.42485,14.42485,0,0,0-2.87742-5.12906A19.61516,19.61516,0,0,0,53.0333,27.735c-.86428-.51913-1.72208-.97809-2.56733-1.38549a22.14855,22.14855,0,0,0-.66406-8.04767,14.57651,14.57651,0,0,0-2.75168-5.23529A13.45516,13.45516,0,0,0,42.19215,9.409a16.892,16.892,0,0,0-6.73044-1.37854,17.47048,17.47048,0,0,0-6.53083,1.05071,13.14568,13.14568,0,0,0-4.96847,3.31314,14.411,14.411,0,0,0-3.00232,5.056A19.61077,19.61077,0,0,0,19.909,23.63338c-.01737,1.01129.02511,1.97454.09519,2.9115a22.13485,22.13485,0,0,0-6.64885,4.60448,14.596,14.596,0,0,0-3.15877,5.00042,13.46392,13.46392,0,0,0-.7374,6.03452,16.88056,16.88056,0,0,0,2.17113,6.51922,17.24684,17.24684,0,0,0,4.17546,5.13072,13.14316,13.14316,0,0,0,5.354,2.64586,13.72268,13.72268,0,0,0,3.05876.33945,15.33144,15.33144,0,0,0,2.8214-.26724,19.60116,19.60116,0,0,0,5.8785-2.1811c.884-.48977,1.71087-1.00335,2.48526-1.531a22.15874,22.15874,0,0,0,7.30061,3.449,15.05535,15.05535,0,0,0,3.55051.4324,14.11755,14.11755,0,0,0,2.36077-.19752,13.465,13.465,0,0,0,5.59425-2.37862,16.90116,16.90116,0,0,0,4.56054-5.13985,17.25892,17.25892,0,0,0,2.355-6.1806A13.13611,13.13611,0,0,0,60.74017,36.86519Zm-21.352,7.838a46.989,46.989,0,0,1-3.67043-4.26841s-3.46528,3.71307-4.21057,4.24869a24.89485,24.89485,0,0,1-2.446,1.54266,10.74358,10.74358,0,0,1-2.916,1.14118,5.46136,5.46136,0,0,1-2.30808.03735,4.71153,4.71153,0,0,1-1.95286-.96357,7.91946,7.91946,0,0,1-1.884-2.3836,7.96457,7.96457,0,0,1-1.05237-2.98531,5.15835,5.15835,0,0,1,.2328-2.27654,5.23714,5.23714,0,0,1,1.21089-1.87983,15.06188,15.06188,0,0,1,4.65474-2.84588c1.25972-.41691,5.52992-1.04324,5.52992-1.04324s-1.48109-4.863-1.57191-5.77263a24.95492,24.95492,0,0,1-.11246-2.8895,10.72891,10.72891,0,0,1,.46975-3.09569,5.4755,5.4755,0,0,1,1.12042-2.0176A4.73053,4.73053,0,0,1,32.29132,18.042a7.75447,7.75447,0,0,1,3.00772-.43987,7.97069,7.97069,0,0,1,3.11271.581,5.15493,5.15493,0,0,1,1.85493,1.34036,5.22935,5.22935,0,0,1,1.02249,1.98772,14.66953,14.66953,0,0,1,.13777,5.45523,48.39381,48.39381,0,0,1-1.86323,5.31579s4.6414,1.17054,5.784,1.51854a9.96616,9.96616,0,0,1,2.56069,1.34809,10.74082,10.74082,0,0,1,2.44668,1.95369A5.48041,5.48041,0,0,1,51.54189,39.082a4.72105,4.72105,0,0,1,.14233,2.17362,7.93525,7.93525,0,0,1-1.12208,2.82348,7.96853,7.96853,0,0,1-2.05992,2.40518,5.15815,5.15815,0,0,1-2.089.93617,5.24286,5.24286,0,0,1-2.23214-.10872A17.92815,17.92815,0,0,1,39.38818,44.70319ZM24.96831,18.862a10.18922,10.18922,0,0,1,2.11137-3.57955,8.93725,8.93725,0,0,1,3.38493-2.23837,12.7919,12.7919,0,0,1,4.617-.76769c.10208,0,.205.00166.30791.00332a12.71348,12.71348,0,0,1,5.04274.99676,9.2567,9.2567,0,0,1,3.34509,2.49979A10.3557,10.3557,0,0,1,45.724,19.49693a17.20561,17.20561,0,0,1,.57764,5.30356c-.14934-.03885-.29743-.08139-.44781-.11713A15.20789,15.20789,0,0,0,45.38245,20.37a9.09518,9.09518,0,0,0-5.22159-6.05943,12.13353,12.13353,0,0,0-4.78961-.95776,11.99936,11.99936,0,0,0-4.634.73451,8.93219,8.93219,0,0,0-3.40983,2.3172,9.68128,9.68128,0,0,0-2.01137,3.56378,14.95007,14.95007,0,0,0-.67267,4.324c-.00353.20152.00612.395.00643.59429-.15986.03947-.31351.0832-.47016.1249-.012-.43074-.02977-.85582-.0222-1.30514A15.38508,15.38508,0,0,1,24.96831,18.862Zm5.88887,31.79352a15.40209,15.40209,0,0,1-4.6,1.72047,10.18694,10.18694,0,0,1-4.15553-.03983,8.9369,8.9369,0,0,1-3.631-1.81177,13.0517,13.0517,0,0,1-3.12474-3.88248,12.70678,12.70678,0,0,1-1.6574-4.8668,9.25145,9.25145,0,0,1,.49132-4.14557,10.37462,10.37462,0,0,1,2.24957-3.54719,17.21531,17.21531,0,0,1,4.3043-3.15171c.03916.142.07386.28493.11593.42633a15.09831,15.09831,0,0,0-3.49277,2.58429,9.09465,9.09465,0,0,0-2.63756,7.55416A12.13192,12.13192,0,0,0,16.285,46.1199,12.07807,12.07807,0,0,0,19.23712,49.765a8.90944,8.90944,0,0,0,3.7111,1.79517,9.64468,9.64468,0,0,0,4.0937-.03984,14.93559,14.93559,0,0,0,4.08084-1.57855c.176-.09757.339-.20287.51145-.30278.11718.1219.23467.23586.35206.35351-.36456.22387-.73746.44562-1.12785.66219ZM56.92657,42.171a13.06245,13.06245,0,0,1-1.79973,4.64769,12.71531,12.71531,0,0,1-3.38659,3.86838,9.26071,9.26071,0,0,1-3.836,1.64744,10.35153,10.35153,0,0,1-4.19537-.17429,17.22658,17.22658,0,0,1-4.88194-2.15231c.10338-.10478.20972-.20619.311-.3132a15.07492,15.07492,0,0,0,3.98374,1.73184,9.44964,9.44964,0,0,0,4.03768.17761,9.35208,9.35208,0,0,0,3.82314-1.66985A12.11631,12.11631,0,0,0,54.2056,46.266a12.09792,12.09792,0,0,0,1.68105-4.37879,8.92585,8.92585,0,0,0-.30169-4.11237,9.68308,9.68308,0,0,0-2.0815-3.52561,14.96807,14.96807,0,0,0-3.40775-2.7438c-.17273-.10369-.34495-.19208-.51773-.29141.04694-.16241.087-.32134.1302-.48183.37674.204.75566.41637,1.13822.64626h.00083a15.38194,15.38194,0,0,1,3.78869,3.12308,10.19511,10.19511,0,0,1,2.04457,3.61939A8.93343,8.93343,0,0,1,56.92657,42.171Z"/></mask><filter id="luminosity-noclip-2" x="3.45934" y="1.39349" width="63.76904" height="62.35782" filterUnits="userSpaceOnUse" color-interpolation-filters="sRGB"><feFlood flood-color="#fff" result="bg"/><feBlend in="SourceGraphic" in2="bg"/></filter><mask id="mask-2" x="3.45934" y="1.39349" width="63.76904" height="62.35782" maskUnits="userSpaceOnUse"><g class="cls-9"><path class="cls-2" d="M22.03318,18.41118a17.50334,17.50334,0,0,1,.93115-5.51408,12.29867,12.29867,0,0,1,2.556-4.31652A11.04291,11.04291,0,0,1,29.697,5.80437a15.13891,15.13891,0,0,1,5.72875-.90795,14.7902,14.7902,0,0,1,5.88657,1.18815,11.355,11.355,0,0,1,4.10139,3.07778,12.47229,12.47229,0,0,1,2.3494,4.47949,21.30255,21.30255,0,0,1,.38874,8.98,23.00922,23.00922,0,0,1-.94885,3.81879l-.12857.38587-4.55568-1.30294.16589-.433a14.61485,14.61485,0,0,0,.845-3.07848,15.7938,15.7938,0,0,0-.19386-6.32921,7.33777,7.33777,0,0,0-1.4443-2.78739,7.25532,7.25532,0,0,0-2.60556-1.90731,10.03868,10.03868,0,0,0-3.9505-.7693,10.01817,10.01817,0,0,0-3.82079.58714,6.81842,6.81842,0,0,0-2.60978,1.76358,7.57553,7.57553,0,0,0-1.56641,2.79106,12.848,12.848,0,0,0-.571,3.70982,26.99431,26.99431,0,0,0,.12681,3.18919,16.25762,16.25762,0,0,0,.73967,3.32l.15382.47367-4.48347.70165-.11719-.33318a19.47591,19.47591,0,0,1-.9301-3.837A27.785,27.785,0,0,1,22.03318,18.41118Z"/><path class="cls-2" d="M27.33451,55.14258a17.50329,17.50329,0,0,1-5.24091,1.95064,12.29886,12.29886,0,0,1-5.01622-.0553,11.04287,11.04287,0,0,1-4.49262-2.229,15.13894,15.13894,0,0,1-3.65068-4.50726,14.79013,14.79013,0,0,1-1.91431-5.692,11.35489,11.35489,0,0,1,.61474-5.0908,12.47216,12.47216,0,0,1,2.70465-4.27438,21.30249,21.30249,0,0,1,7.58254-4.82667,23.00989,23.00989,0,0,1,3.7816-1.08767l.39846-.08159,1.14947,4.59681-.45791.07281a14.61486,14.61486,0,0,0-3.08853.80747,15.79407,15.79407,0,0,0-5.38432,3.33249,7.33785,7.33785,0,0,0-1.6918,2.6445,7.25512,7.25512,0,0,0-.349,3.21014,10.03862,10.03862,0,0,0,1.309,3.80588A10.01807,10.01807,0,0,0,16.00756,50.734a6.81837,6.81837,0,0,0,2.83219,1.37835,7.57556,7.57556,0,0,0,3.20033-.039,12.84792,12.84792,0,0,0,3.49829-1.36043,26.99475,26.99475,0,0,0,2.69851-1.70441,16.25682,16.25682,0,0,0,2.50533-2.30055l.3333-.37,2.84939,3.532-.23.26809a19.47678,19.47678,0,0,1-2.85788,2.724A27.78721,27.78721,0,0,1,27.33451,55.14258Z"/><path class="cls-2" d="M56.49417,32.1858a17.50319,17.50319,0,0,1,4.30976,3.56343,12.29875,12.29875,0,0,1,2.46021,4.37183,11.04274,11.04274,0,0,1,.31592,5.00523A15.1389,15.1389,0,0,1,61.502,50.54151a14.79006,14.79006,0,0,1-3.97225,4.50384,11.355,11.355,0,0,1-4.71614,2.013,12.47231,12.47231,0,0,1-5.054-.20511,21.30263,21.30263,0,0,1-7.97129-4.15334,23.01036,23.01036,0,0,1-2.83274-2.73112l-.26989-.30428,3.40622-3.29388.292.36016a14.615,14.615,0,0,0,2.24355,2.271,15.794,15.794,0,0,0,5.57819,2.99672,7.33775,7.33775,0,0,0,3.1361.14289,7.25518,7.25518,0,0,0,2.95457-1.30283A10.03874,10.03874,0,0,0,56.93776,47.802a10.01809,10.01809,0,0,0,1.40191-3.60248,6.81844,6.81844,0,0,0-.22241-3.14193,7.57555,7.57555,0,0,0-1.63393-2.75207,12.84786,12.84786,0,0,0-2.92731-2.3494,26.99467,26.99467,0,0,0-2.82532-1.48477,16.25675,16.25675,0,0,0-3.245-1.0194l-.48713-.10362,1.63409-4.23363.34714.0651a19.47575,19.47575,0,0,1,3.788,1.113A27.7849,27.7849,0,0,1,56.49417,32.1858Z"/></g></mask></defs><title>logooArtboard 2 copy 3</title><path class="cls-3" d="M79.82435,37.05767a16.83488,16.83488,0,0,1,1.23877-6.75,12.81415,12.81415,0,0,1,3.40577-4.70654,14.1243,14.1243,0,0,1,5.04687-2.75586,20.6183,20.6183,0,0,1,6.16162-.89746,31.41515,31.41515,0,0,1,4.18018.27832,26.50706,26.50706,0,0,1,4.42773,1.022l-1.17676,4.39648a17.61994,17.61994,0,0,0-3.74658-.95947,27.19525,27.19525,0,0,0-3.43652-.2168,14.72566,14.72566,0,0,0-4.21094.58838,9.08826,9.08826,0,0,0-3.437,1.85742,8.98833,8.98833,0,0,0-2.32227,3.28223,12.2497,12.2497,0,0,0-.86718,4.86133,12.2168,12.2168,0,0,0,.80517,4.6748,8.47875,8.47875,0,0,0,2.26026,3.22071,9.36415,9.36415,0,0,0,3.499,1.88867A15.53288,15.53288,0,0,0,96.173,47.461a32.12,32.12,0,0,0,3.80859-.2168,19.49558,19.49558,0,0,0,3.99414-.96l.74317,4.27344a22.27211,22.27211,0,0,1-4.397,1.14551,32.11039,32.11039,0,0,1-4.83008.34082,19.98375,19.98375,0,0,1-6.34765-.96,13.9087,13.9087,0,0,1-4.9541-2.81836,12.44471,12.44471,0,0,1-3.21973-4.67481A17.23648,17.23648,0,0,1,79.82435,37.05767Z"/><path class="cls-3" d="M135.04766,36.99517a18.6513,18.6513,0,0,1-.96,6.16211,14.21028,14.21028,0,0,1-2.69385,4.7373A11.93477,11.93477,0,0,1,127.24493,50.96a12.72254,12.72254,0,0,1-5.26367,1.084,12.35767,12.35767,0,0,1-5.1709-1.084,12.00618,12.00618,0,0,1-4.11768-3.06543,14.18521,14.18521,0,0,1-2.69385-4.7373,18.62614,18.62614,0,0,1-.96-6.16211,18.90818,18.90818,0,0,1,.96-6.19238,13.79171,13.79171,0,0,1,2.69385-4.73731,12.20494,12.20494,0,0,1,4.11768-3.03418,12.35736,12.35736,0,0,1,5.1709-1.08349,12.72226,12.72226,0,0,1,5.26367,1.08349,12.13056,12.13056,0,0,1,4.14892,3.03418,13.81536,13.81536,0,0,1,2.69385,4.73731A18.93386,18.93386,0,0,1,135.04766,36.99517Zm-5.26367,0a12.6248,12.6248,0,0,0-2.10547-7.70947,6.74247,6.74247,0,0,0-5.69726-2.81739,6.60028,6.60028,0,0,0-5.604,2.81739,12.75246,12.75246,0,0,0-2.07471,7.70947,12.63306,12.63306,0,0,0,2.07471,7.64844,6.59789,6.59789,0,0,0,5.604,2.81738,6.74,6.74,0,0,0,5.69726-2.81738A12.50713,12.50713,0,0,0,129.784,36.99517Z"/><path class="cls-3" d="M140.8976,23.43365a53.54611,53.54611,0,0,1,5.542-1.05274,38.8305,38.8305,0,0,1,5.1709-.37158q5.759,0,8.70068,2.97266,2.94067,2.97216,2.94141,9.53662V51.36236h-5.07813v-15.915a16.916,16.916,0,0,0-.49512-4.52051,6.51894,6.51894,0,0,0-1.39355-2.69385,4.74558,4.74558,0,0,0-2.16748-1.33154,9.77746,9.77746,0,0,0-2.75537-.37109,24.03615,24.03615,0,0,0-2.63184.15478q-1.3938.15528-2.69385.40234V51.36236H140.8976Z"/><path class="cls-3" d="M194.71058,22.629q-1.11474,4.02612-2.53857,7.89551-1.42528,3.87084-2.91064,7.55468-1.4861,3.68555-3.03467,7.02832-1.54834,3.34425-2.97217,6.25489H178.61q-2.91138-5.81984-5.88281-13.252A158.15971,158.15971,0,0,1,167.46351,22.629h5.57325q.74267,2.72534,1.70312,5.75879.95874,3.03515,2.01221,6.06933,1.05249,3.03369,2.13672,5.85157,1.08252,2.81835,2.13623,5.04687,1.05249-2.22949,2.19824-5.04687,1.14551-2.8169,2.26074-5.85157,1.114-3.03442,2.13623-6.06933,1.02174-3.033,1.76465-5.75879Z"/><path class="cls-3" d="M210.74916,21.94781q5.82055,0,8.97949,3.62255,3.15821,3.62256,3.1582,10.99219v1.79492H202.32728a9.4913,9.4913,0,0,0,2.9419,6.78125q2.63085,2.32179,7.3999,2.32227a21.40334,21.40334,0,0,0,4.64453-.43359,13.36946,13.36946,0,0,0,2.91065-.92872l.68115,4.335a15.2474,15.2474,0,0,1-3.34424,1.05273,24.34244,24.34244,0,0,1-5.44922.55762,17.25355,17.25355,0,0,1-6.5332-1.14649,12.98515,12.98515,0,0,1-4.67578-3.12695,12.80015,12.80015,0,0,1-2.78662-4.73731,18.59515,18.59515,0,0,1-.92871-5.97558,17.43744,17.43744,0,0,1,1.17675-6.688,13.73122,13.73122,0,0,1,3.09619-4.70654,12.77234,12.77234,0,0,1,4.335-2.78662A13.689,13.689,0,0,1,210.74916,21.94781Zm6.936,12.26123a8.34534,8.34534,0,0,0-1.91992-5.79,6.49612,6.49612,0,0,0-5.07763-2.13672,7.5805,7.5805,0,0,0-3.25147.68115,8.19185,8.19185,0,0,0-2.50781,1.7959,8.7209,8.7209,0,0,0-1.67188,2.53906,10.55794,10.55794,0,0,0-.80517,2.91065Z"/><path class="cls-3" d="M227.942,51.36236V24.17681a39.0805,39.0805,0,0,1,12.75684-2.16748q1.9812,0,3.77734.15478a29.28608,29.28608,0,0,1,3.96338.65039l-.92871,4.52051a21.08684,21.08684,0,0,0-3.499-.71191,32.98624,32.98624,0,0,0-3.313-.15479,29.39336,29.39336,0,0,0-7.67871,1.05274V51.36236Z"/><path class="cls-3" d="M268.75844,44.17876a3.08608,3.08608,0,0,0-1.26953-2.53906,12.667,12.667,0,0,0-3.15821-1.7334q-1.88964-.74413-4.11719-1.45508a22.37863,22.37863,0,0,1-4.11816-1.76562,10.84737,10.84737,0,0,1-3.1582-2.60059,6.13976,6.13976,0,0,1-1.26953-4.02539,7.20819,7.20819,0,0,1,2.81738-5.79q2.81689-2.32177,8.82422-2.32177a36.21234,36.21234,0,0,1,4.86133.34033,26.99532,26.99532,0,0,1,4.30371.898l-.92871,4.58252a10.14921,10.14921,0,0,0-1.36231-.52637,17.64159,17.64159,0,0,0-1.98144-.49561q-1.11475-.21606-2.38477-.34033-1.27-.12378-2.44531-.124-6.68848,0-6.68848,3.65381a2.63183,2.63183,0,0,0,1.26953,2.19824,14.72477,14.72477,0,0,0,3.18946,1.64111q1.91893.74341,4.14843,1.51758a23.81136,23.81136,0,0,1,4.14942,1.88867,11.35634,11.35634,0,0,1,3.18945,2.69336,6.17493,6.17493,0,0,1,1.26953,3.99414,6.95592,6.95592,0,0,1-3.03515,6.03809q-3.0337,2.13575-9.59766,2.13672a27.85088,27.85088,0,0,1-5.4502-.4961,22.286,22.286,0,0,1-4.706-1.48632l.99121-4.64454a29.664,29.664,0,0,0,4.55078,1.64161,19.34075,19.34075,0,0,0,5.10938.65039Q268.75893,47.709,268.75844,44.17876Z"/><path class="cls-3" d="M284.96351,52.044V26.90142h-8.29785V22.629h13.375V52.044Zm1.29981-33.874a3.91242,3.91242,0,0,1-2.78613-1.11474,3.97571,3.97571,0,0,1-1.17676-3.03418,3.97787,3.97787,0,0,1,1.17676-3.03418,4.07819,4.07819,0,0,1,5.60351,0,4.03852,4.03852,0,0,1,1.14551,3.03418,4.03631,4.03631,0,0,1-1.14551,3.03418A3.88332,3.88332,0,0,1,286.26332,18.17Z"/><path class="cls-3" d="M307.83461,21.94781a15.88474,15.88474,0,0,1,5.418.80468,9.23887,9.23887,0,0,1,3.56152,2.2295,7.95335,7.95335,0,0,1,1.91895,3.46777,16.88425,16.88425,0,0,1,.55761,4.45849v17.959q-1.79736.31054-4.7373.74316a41.4925,41.4925,0,0,1-6.03809.4336,25.71409,25.71409,0,0,1-4.582-.40332,11.915,11.915,0,0,1-3.96387-1.42383,7.75537,7.75537,0,0,1-2.78613-2.81738,8.96242,8.96242,0,0,1-1.05273-4.583,7.62484,7.62484,0,0,1,1.084-4.17969,8.66179,8.66179,0,0,1,2.78613-2.75586,12.13545,12.13545,0,0,1,3.90137-1.51709,21.362,21.362,0,0,1,4.42774-.46435,26.04166,26.04166,0,0,1,5.94531.68066V33.1563a11.07909,11.07909,0,0,0-.2793-2.5083,5.5724,5.5724,0,0,0-1.05273-2.19824,5.37016,5.37016,0,0,0-2.10547-1.5791,8.57083,8.57083,0,0,0-3.43653-.58838,25.49416,25.49416,0,0,0-4.64453.37158,21.619,21.619,0,0,0-3.03418.74316l-.61914-4.21093a13.85261,13.85261,0,0,1,3.498-.86719A34.90106,34.90106,0,0,1,307.83461,21.94781Zm.49512,25.76123q1.91893,0,3.43652-.124a24.92691,24.92691,0,0,0,2.50879-.30957v-8.5459a14.51791,14.51791,0,0,0-2.38477-.49511,22.23868,22.23868,0,0,0-2.9414-.18653,17.80136,17.80136,0,0,0-2.78614.2168,7.74465,7.74465,0,0,0-2.415.77441,5.18247,5.18247,0,0,0-1.73437,1.45508,3.6284,3.6284,0,0,0-.68066,2.26074,4.07605,4.07605,0,0,0,1.88867,3.87012A10.25972,10.25972,0,0,0,308.32973,47.709Z"/><rect class="cls-3" x="276.66566" y="22.62896" width="8.27393" height="4.27246"/><path class="cls-4" d="M22.03318,18.41118a17.50334,17.50334,0,0,1,.93115-5.51408,12.29867,12.29867,0,0,1,2.556-4.31652A11.04291,11.04291,0,0,1,29.697,5.80437a15.13891,15.13891,0,0,1,5.72875-.90795,14.7902,14.7902,0,0,1,5.88657,1.18815,11.355,11.355,0,0,1,4.10139,3.07778,12.47229,12.47229,0,0,1,2.3494,4.47949,21.30255,21.30255,0,0,1,.38874,8.98,23.00922,23.00922,0,0,1-.94885,3.81879l-.12857.38587-4.55568-1.30294.16589-.433a14.61485,14.61485,0,0,0,.845-3.07848,15.7938,15.7938,0,0,0-.19386-6.32921,7.33777,7.33777,0,0,0-1.4443-2.78739,7.25532,7.25532,0,0,0-2.60556-1.90731,10.03868,10.03868,0,0,0-3.9505-.7693,10.01817,10.01817,0,0,0-3.82079.58714,6.81842,6.81842,0,0,0-2.60978,1.76358,7.57553,7.57553,0,0,0-1.56641,2.79106,12.848,12.848,0,0,0-.571,3.70982,26.99431,26.99431,0,0,0,.12681,3.18919,16.25762,16.25762,0,0,0,.73967,3.32l.15382.47367-4.48347.70165-.11719-.33318a19.47591,19.47591,0,0,1-.9301-3.837A27.785,27.785,0,0,1,22.03318,18.41118Z"/><path class="cls-4" d="M27.33451,55.14258a17.50329,17.50329,0,0,1-5.24091,1.95064,12.29886,12.29886,0,0,1-5.01622-.0553,11.04287,11.04287,0,0,1-4.49262-2.229,15.13894,15.13894,0,0,1-3.65068-4.50726,14.79013,14.79013,0,0,1-1.91431-5.692,11.35489,11.35489,0,0,1,.61474-5.0908,12.47216,12.47216,0,0,1,2.70465-4.27438,21.30249,21.30249,0,0,1,7.58254-4.82667,23.00989,23.00989,0,0,1,3.7816-1.08767l.39846-.08159,1.14947,4.59681-.45791.07281a14.61486,14.61486,0,0,0-3.08853.80747,15.79407,15.79407,0,0,0-5.38432,3.33249,7.33785,7.33785,0,0,0-1.6918,2.6445,7.25512,7.25512,0,0,0-.349,3.21014,10.03862,10.03862,0,0,0,1.309,3.80588A10.01807,10.01807,0,0,0,16.00756,50.734a6.81837,6.81837,0,0,0,2.83219,1.37835,7.57556,7.57556,0,0,0,3.20033-.039,12.84792,12.84792,0,0,0,3.49829-1.36043,26.99475,26.99475,0,0,0,2.69851-1.70441,16.25682,16.25682,0,0,0,2.50533-2.30055l.3333-.37,2.84939,3.532-.23.26809a19.47678,19.47678,0,0,1-2.85788,2.724A27.78721,27.78721,0,0,1,27.33451,55.14258Z"/><path class="cls-4" d="M56.49417,32.1858a17.50319,17.50319,0,0,1,4.30976,3.56343,12.29875,12.29875,0,0,1,2.46021,4.37183,11.04274,11.04274,0,0,1,.31592,5.00523A15.1389,15.1389,0,0,1,61.502,50.54151a14.79006,14.79006,0,0,1-3.97225,4.50384,11.355,11.355,0,0,1-4.71614,2.013,12.47231,12.47231,0,0,1-5.054-.20511,21.30263,21.30263,0,0,1-7.97129-4.15334,23.01036,23.01036,0,0,1-2.83274-2.73112l-.26989-.30428,3.40622-3.29388.292.36016a14.615,14.615,0,0,0,2.24355,2.271,15.794,15.794,0,0,0,5.57819,2.99672,7.33775,7.33775,0,0,0,3.1361.14289,7.25518,7.25518,0,0,0,2.95457-1.30283A10.03874,10.03874,0,0,0,56.93776,47.802a10.01809,10.01809,0,0,0,1.40191-3.60248,6.81844,6.81844,0,0,0-.22241-3.14193,7.57555,7.57555,0,0,0-1.63393-2.75207,12.84786,12.84786,0,0,0-2.92731-2.3494,26.99467,26.99467,0,0,0-2.82532-1.48477,16.25675,16.25675,0,0,0-3.245-1.0194l-.48713-.10362,1.63409-4.23363.34714.0651a19.47575,19.47575,0,0,1,3.788,1.113A27.7849,27.7849,0,0,1,56.49417,32.1858Z"/><g class="cls-5"><path class="cls-4" d="M25.963,32.97109,23.73625,28.8612c6.7155-3.63848,16.40635-3.78538,23.04259-.34609l-2.15039,4.14973C39.35415,29.93349,31.329,30.06462,25.963,32.97109Z"/><path class="cls-4" d="M35.57583,48.46864c-6.73666-3.9414-11.72712-12.29895-11.86614-19.87136l4.67342-.08632c.10956,5.95486,4.21654,12.80024,9.55308,15.92249Z"/><path class="cls-4" d="M35.26709,48.62716l-2.31057-4.06341c5.27057-2.99776,9.124-9.93194,8.96341-16.1308l4.67258-.12117C46.79793,36.23443,42.03487,44.77788,35.26709,48.62716Z"/></g><g class="cls-6"><circle class="cls-7" cx="35.28729" cy="35.24652" r="26.00479"/></g><path class="cls-8" d="M161.7112,69.72284V62.87079a9.84758,9.84758,0,0,1,3.21582-.54639q.49878,0,.95215.03906a7.37567,7.37567,0,0,1,.99853.16358l-.23389,1.13964a5.33216,5.33216,0,0,0-.88183-.17968,8.31044,8.31044,0,0,0-.835-.03907,7.41029,7.41029,0,0,0-1.93555.26563v6.00928Z"/><path class="cls-8" d="M170.98219,62.30877a2.84225,2.84225,0,0,1,2.26367.91309,4.12665,4.12665,0,0,1,.7959,2.77051V66.445h-5.18213a2.39149,2.39149,0,0,0,.74122,1.709,2.72461,2.72461,0,0,0,1.86523.58545,5.37134,5.37134,0,0,0,1.1709-.10938,3.37468,3.37468,0,0,0,.7334-.23388l.17187,1.09277a3.8699,3.8699,0,0,1-.84277.26514,6.12236,6.12236,0,0,1-1.37354.14062,4.35266,4.35266,0,0,1-1.647-.28906,3.27548,3.27548,0,0,1-1.17822-.78809,3.22435,3.22435,0,0,1-.70264-1.19433,4.68045,4.68045,0,0,1-.23389-1.50586,4.39878,4.39878,0,0,1,.29639-1.686,3.46794,3.46794,0,0,1,.78027-1.186,3.23124,3.23124,0,0,1,1.09278-.70264A3.456,3.456,0,0,1,170.98219,62.30877Zm1.74854,3.09034a2.10539,2.10539,0,0,0-.48389-1.45948,1.63849,1.63849,0,0,0-1.28027-.53808,1.91239,1.91239,0,0,0-.81934.17138,2.07526,2.07526,0,0,0-.63232.45264,2.211,2.211,0,0,0-.42139.64014,2.66225,2.66225,0,0,0-.20264.7334Z"/><path class="cls-8" d="M175.19655,66.11737a4.2401,4.2401,0,0,1,.3125-1.70166,3.22743,3.22743,0,0,1,.8584-1.186,3.567,3.567,0,0,1,1.272-.69482,5.20521,5.20521,0,0,1,1.55322-.22608,7.90681,7.90681,0,0,1,1.05371.07032,6.674,6.674,0,0,1,1.11573.25732l-.29639,1.1084a4.43374,4.43374,0,0,0-.94434-.24219,6.91749,6.91749,0,0,0-.86621-.05469,3.71822,3.71822,0,0,0-1.06152.14844,2.29647,2.29647,0,0,0-.86621.46826,2.266,2.266,0,0,0-.58545.82715,3.53866,3.53866,0,0,0-.01563,2.40381,2.13646,2.13646,0,0,0,.56983.81152,2.354,2.354,0,0,0,.88183.47608,3.90288,3.90288,0,0,0,1.13965.15625,8.11319,8.11319,0,0,0,.96-.05469,4.9247,4.9247,0,0,0,1.00635-.2417l.1875,1.07666a5.59945,5.59945,0,0,1-1.1084.28906,8.087,8.087,0,0,1-1.21728.08594,5.03947,5.03947,0,0,1-1.6001-.24219,3.50807,3.50807,0,0,1-1.24854-.71,3.14156,3.14156,0,0,1-.81152-1.17871A4.34054,4.34054,0,0,1,175.19655,66.11737Z"/><path class="cls-8" d="M182.8847,69.72284V62.87079a9.84758,9.84758,0,0,1,3.21582-.54639q.49878,0,.95214.03906a7.37579,7.37579,0,0,1,.99854.16358l-.23389,1.13964a5.33216,5.33216,0,0,0-.88183-.17968,8.31044,8.31044,0,0,0-.835-.03907,7.41029,7.41029,0,0,0-1.93555.26563v6.00928Z"/><path class="cls-8" d="M195.00742,69.51971q-.42187.10986-1.11621.23438a9.35113,9.35113,0,0,1-1.63086.125,3.40542,3.40542,0,0,1-1.374-.24219,2.254,2.254,0,0,1-.88965-.68652,2.69162,2.69162,0,0,1-.48388-1.05372,5.99493,5.99493,0,0,1-.14014-1.34228V62.48016h1.27979v3.793a3.4136,3.4136,0,0,0,.39795,1.9043,1.52113,1.52113,0,0,0,1.33447.562c.13525,0,.27344-.00488.41357-.01563q.21095-.01537.39844-.03906.18677-.02343.32764-.04687a1.412,1.412,0,0,0,.187-.03907V62.48016h1.2959Z"/><path class="cls-8" d="M204.29265,62.48016h3.05909v1.07715h-3.05909v3.37158a4.12117,4.12117,0,0,0,.07813.88965,1.27369,1.27369,0,0,0,.25732.5542.90674.90674,0,0,0,.46045.28857,2.59114,2.59114,0,0,0,.687.07813,3.10033,3.10033,0,0,0,1.56055-.34326l.1875,1.09277q-.219.093-.69482.24951a3.82531,3.82531,0,0,1-1.17823.15625,3.94091,3.94091,0,0,1-1.32666-.1875,1.73008,1.73008,0,0,1-.80371-.562,2.183,2.183,0,0,1-.39843-.92871,6.72283,6.72283,0,0,1-.10889-1.2876V63.55731h-1.52979V62.48016h1.52979V60.45135l1.27978-.21875Z"/><path class="cls-8" d="M208.91326,62.68329a4.93654,4.93654,0,0,1,1.76367-.35889,2.67366,2.67366,0,0,1,.85059.13281,1.709,1.709,0,0,1,.6792.41358,2.2343,2.2343,0,0,1,1.436-.54639,1.82006,1.82006,0,0,1,.71.14062,1.67256,1.67256,0,0,1,.59327.42139,2.11143,2.11143,0,0,1,.41357.70215,2.8294,2.8294,0,0,1,.15625.9834v5.15088h-1.1709V64.54071a1.30231,1.30231,0,0,0-.24951-.8584.78427.78427,0,0,0-.62451-.29639.92576.92576,0,0,0-.39014.09326,1.09781,1.09781,0,0,0-.37451.29688,3.17316,3.17316,0,0,1,.09326.7959v2.35693h-1.17041V64.55633a1.79514,1.79514,0,0,0-.17187-.8584.69647.69647,0,0,0-.6709-.312,2.096,2.096,0,0,0-.70264.14014v6.19678h-1.17041Z"/><path class="cls-8" d="M220.20883,62.30877a2.84229,2.84229,0,0,1,2.26368.91309,4.1267,4.1267,0,0,1,.79589,2.77051V66.445h-5.18213a2.39149,2.39149,0,0,0,.74122,1.709,2.72461,2.72461,0,0,0,1.86523.58545,5.37134,5.37134,0,0,0,1.1709-.10938,3.37468,3.37468,0,0,0,.7334-.23388l.17187,1.09277a3.8699,3.8699,0,0,1-.84277.26514,6.12236,6.12236,0,0,1-1.37354.14062,4.35266,4.35266,0,0,1-1.647-.28906,3.27548,3.27548,0,0,1-1.17822-.78809,3.22435,3.22435,0,0,1-.70264-1.19433,4.68045,4.68045,0,0,1-.23389-1.50586,4.39878,4.39878,0,0,1,.29639-1.686,3.46809,3.46809,0,0,1,.78027-1.186,3.23124,3.23124,0,0,1,1.09278-.70264A3.456,3.456,0,0,1,220.20883,62.30877Zm1.74854,3.09034a2.10539,2.10539,0,0,0-.48389-1.45948,1.63849,1.63849,0,0,0-1.28027-.53808,1.91239,1.91239,0,0,0-.81934.17138,2.07526,2.07526,0,0,0-.63232.45264,2.211,2.211,0,0,0-.42139.64014,2.66225,2.66225,0,0,0-.20264.7334Z"/><path class="cls-8" d="M224.57944,62.68329a13.37426,13.37426,0,0,1,1.397-.26514,9.76973,9.76973,0,0,1,1.30322-.09375,2.95491,2.95491,0,0,1,2.19288.749,3.317,3.317,0,0,1,.74169,2.40381v4.24561h-1.28027V65.71161a4.27535,4.27535,0,0,0-.12451-1.13965,1.64558,1.64558,0,0,0-.35156-.6792,1.1965,1.1965,0,0,0-.5459-.33545,2.46694,2.46694,0,0,0-.69483-.09375,6.05623,6.05623,0,0,0-.66357.03906q-.35084.03956-.67871.10156v6.11866h-1.29541Z"/><path class="cls-8" d="M234.17286,62.48016H237.232v1.07715h-3.05909v3.37158a4.12117,4.12117,0,0,0,.07813.88965,1.27358,1.27358,0,0,0,.25732.5542.90674.90674,0,0,0,.46045.28857,2.59114,2.59114,0,0,0,.687.07813,3.10033,3.10033,0,0,0,1.56055-.34326l.1875,1.09277q-.219.093-.69482.24951a3.82535,3.82535,0,0,1-1.17823.15625,3.94087,3.94087,0,0,1-1.32666-.1875,1.73,1.73,0,0,1-.80371-.562,2.18308,2.18308,0,0,1-.39844-.92871,6.7237,6.7237,0,0,1-.10888-1.2876V63.55731h-1.52979V62.48016h1.52979V60.45135l1.27978-.21875Z"/><path class="cls-8" d="M198.73789,69.87909V63.55731h-3.88284V62.48016h5.16262v7.39893Zm.32763-8.52246a.98516.98516,0,0,1-.70215-.28125,1.13319,1.13319,0,0,1,0-1.5293,1.02746,1.02746,0,0,1,1.4126,0,1.15734,1.15734,0,0,1,0,1.5293A.98021.98021,0,0,1,199.06552,61.35663Z"/></svg>