<svg id="Layer_1" data-name="Layer 1" xmlns="http://www.w3.org/2000/svg" xmlns:xlink="http://www.w3.org/1999/xlink" viewBox="0 0 68.47 65.87"><defs><style>.cls-1{filter:url(#luminosity-noclip);}.cls-2{stroke:#000;stroke-width:7px;}.cls-2,.cls-6{stroke-miterlimit:10;}.cls-3{fill:#292b33;}.cls-4{mask:url(#mask);}.cls-5{mask:url(#mask-2);}.cls-6{fill:none;stroke:#292b33;stroke-width:5px;}.cls-7{filter:url(#luminosity-noclip-2);}</style><filter id="luminosity-noclip" x="8.67" y="6.63" width="51.91" height="48.79" filterUnits="userSpaceOnUse" color-interpolation-filters="sRGB"><feFlood flood-color="#fff" result="bg"/><feBlend in="SourceGraphic" in2="bg"/></filter><mask id="mask" x="8.67" y="6.63" width="51.91" height="48.79" maskUnits="userSpaceOnUse"><path class="cls-1" d="M60,35.47a14.59,14.59,0,0,0-2.88-5.13,19.78,19.78,0,0,0-4.83-4A28.1,28.1,0,0,0,49.75,25a22.31,22.31,0,0,0-.66-8,14.61,14.61,0,0,0-2.75-5.24A13.55,13.55,0,0,0,41.48,8a16.88,16.88,0,0,0-6.73-1.37,17.39,17.39,0,0,0-6.53,1.05,13.08,13.08,0,0,0-5,3.31,14.26,14.26,0,0,0-3,5.06,19.33,19.33,0,0,0-1.05,6.18c0,1,0,2,.09,2.91a22.35,22.35,0,0,0-6.65,4.6,14.69,14.69,0,0,0-3.16,5,13.47,13.47,0,0,0-.73,6,16.83,16.83,0,0,0,2.17,6.52,17.15,17.15,0,0,0,4.17,5.13,13.28,13.28,0,0,0,5.36,2.65,14,14,0,0,0,3.05.34,15.31,15.31,0,0,0,2.83-.27A19.64,19.64,0,0,0,32.2,53c.89-.49,1.72-1,2.49-1.53A22.07,22.07,0,0,0,42,54.89a15,15,0,0,0,3.55.44,14.37,14.37,0,0,0,2.36-.2,13.61,13.61,0,0,0,5.6-2.38,17,17,0,0,0,4.56-5.14,17.13,17.13,0,0,0,2.35-6.18A13.07,13.07,0,0,0,60,35.47ZM38.67,43.31A47.05,47.05,0,0,1,35,39s-3.46,3.71-4.21,4.25a25.57,25.57,0,0,1-2.44,1.54A10.48,10.48,0,0,1,25.43,46a5.48,5.48,0,0,1-2.31,0,4.74,4.74,0,0,1-1.95-1,7.87,7.87,0,0,1-1.88-2.39,8,8,0,0,1-1.06-3,5.23,5.23,0,0,1,.24-2.28,5.13,5.13,0,0,1,1.21-1.88,14.9,14.9,0,0,1,4.65-2.84c1.26-.42,5.53-1.05,5.53-1.05s-1.48-4.86-1.57-5.77A24.52,24.52,0,0,1,28.18,23a10.85,10.85,0,0,1,.47-3.1,5.38,5.38,0,0,1,1.12-2,4.62,4.62,0,0,1,1.81-1.21,7.59,7.59,0,0,1,3-.44,7.88,7.88,0,0,1,3.11.58,5.06,5.06,0,0,1,1.85,1.34,5.24,5.24,0,0,1,1,2,14.69,14.69,0,0,1,.13,5.45,47.59,47.59,0,0,1-1.86,5.32s4.64,1.17,5.78,1.52a9.5,9.5,0,0,1,2.56,1.34,10.54,10.54,0,0,1,2.45,2,5.49,5.49,0,0,1,1.19,2A4.73,4.73,0,0,1,51,39.86a9.47,9.47,0,0,1-3.18,5.23A5.24,5.24,0,0,1,45.7,46a5.3,5.3,0,0,1-2.23-.11A18.1,18.1,0,0,1,38.67,43.31ZM24.25,17.47a10.28,10.28,0,0,1,2.12-3.58,8.9,8.9,0,0,1,3.38-2.24,12.82,12.82,0,0,1,4.62-.77h.31a12.63,12.63,0,0,1,5,1,9.24,9.24,0,0,1,3.34,2.5A10.27,10.27,0,0,1,45,18.1a17.34,17.34,0,0,1,.58,5.31l-.45-.12A14.92,14.92,0,0,0,44.67,19a9.48,9.48,0,0,0-1.87-3.59,9.21,9.21,0,0,0-3.35-2.47,12,12,0,0,0-4.79-1,12.26,12.26,0,0,0-4.64.73A9.15,9.15,0,0,0,26.61,15a9.73,9.73,0,0,0-2,3.56,15.11,15.11,0,0,0-.67,4.33c0,.2,0,.39,0,.59l-.47.13c0-.43,0-.86,0-1.31A15.57,15.57,0,0,1,24.25,17.47Zm5.89,31.79A15.17,15.17,0,0,1,25.54,51a10.15,10.15,0,0,1-4.15,0,8.93,8.93,0,0,1-3.63-1.81,13,13,0,0,1-3.13-3.88A12.87,12.87,0,0,1,13,40.38a9.28,9.28,0,0,1,.5-4.14,10.18,10.18,0,0,1,2.25-3.55A16.91,16.91,0,0,1,20,29.54c0,.14.07.28.12.42a15.37,15.37,0,0,0-3.5,2.59A9.47,9.47,0,0,0,14.47,36,9.27,9.27,0,0,0,14,40.1a12.09,12.09,0,0,0,1.56,4.63,12.23,12.23,0,0,0,2.95,3.64,9,9,0,0,0,3.71,1.8,9.78,9.78,0,0,0,4.1,0,15,15,0,0,0,4.08-1.58l.51-.31.35.36c-.36.22-.73.44-1.13.66Zm26.07-8.48a12.92,12.92,0,0,1-1.8,4.64A12.67,12.67,0,0,1,51,49.29a9.33,9.33,0,0,1-3.84,1.65A10.44,10.44,0,0,1,43,50.77a17.13,17.13,0,0,1-4.89-2.16l.31-.31a15,15,0,0,0,4,1.73,9.07,9.07,0,0,0,7.86-1.49,12.07,12.07,0,0,0,3.22-3.67,12,12,0,0,0,1.68-4.38,8.84,8.84,0,0,0-.3-4.11,9.77,9.77,0,0,0-2.08-3.53,15.28,15.28,0,0,0-3.41-2.74l-.52-.29c0-.16.09-.32.13-.48.38.2.76.41,1.14.64h0a15.49,15.49,0,0,1,3.79,3.13,10.29,10.29,0,0,1,2,3.62A9,9,0,0,1,56.21,40.78Z"/></mask><filter id="luminosity-noclip-2" x="2.75" y="0" width="63.77" height="62.36" filterUnits="userSpaceOnUse" color-interpolation-filters="sRGB"><feFlood flood-color="#fff" result="bg"/><feBlend in="SourceGraphic" in2="bg"/></filter><mask id="mask-2" x="2.75" y="0" width="63.77" height="62.36" maskUnits="userSpaceOnUse"><g class="cls-7"><path class="cls-2" d="M21.32,17a17.54,17.54,0,0,1,.93-5.52,12.23,12.23,0,0,1,2.56-4.31A11,11,0,0,1,29,4.41a15.26,15.26,0,0,1,5.73-.91A14.84,14.84,0,0,1,40.6,4.69a11.38,11.38,0,0,1,4.1,3.08,12.55,12.55,0,0,1,2.35,4.48,21.4,21.4,0,0,1,.39,9,23.12,23.12,0,0,1-.95,3.82l-.13.38-4.55-1.3L42,23.7a14.85,14.85,0,0,0,.85-3.08,16,16,0,0,0-.2-6.33,7.27,7.27,0,0,0-1.44-2.79,7.4,7.4,0,0,0-2.61-1.91,10.17,10.17,0,0,0-4-.77,10.19,10.19,0,0,0-3.82.59,6.83,6.83,0,0,0-2.61,1.77A7.54,7.54,0,0,0,26.62,14a13.24,13.24,0,0,0-.57,3.71,27.51,27.51,0,0,0,.13,3.19,16.09,16.09,0,0,0,.74,3.32l.15.47-4.48.7L22.47,25a20.08,20.08,0,0,1-.93-3.84A27.65,27.65,0,0,1,21.32,17Z"/><path class="cls-2" d="M26.62,53.75a17.67,17.67,0,0,1-5.24,2,12.27,12.27,0,0,1-5-.06,11,11,0,0,1-4.49-2.23,14.92,14.92,0,0,1-3.65-4.5,14.67,14.67,0,0,1-1.91-5.69,11.37,11.37,0,0,1,.61-5.1,12.38,12.38,0,0,1,2.71-4.27A21.33,21.33,0,0,1,17.21,29,22.6,22.6,0,0,1,21,27.94l.4-.09,1.15,4.6-.46.07a14.56,14.56,0,0,0-3.09.81,15.92,15.92,0,0,0-5.38,3.33,6.92,6.92,0,0,0-2,5.86,9.88,9.88,0,0,0,1.3,3.8,10.15,10.15,0,0,0,2.42,3,7,7,0,0,0,2.84,1.38,7.69,7.69,0,0,0,3.2,0,12.9,12.9,0,0,0,3.49-1.36,26,26,0,0,0,2.7-1.71A16.24,16.24,0,0,0,30,45.31l.33-.37,2.85,3.54-.23.26a19.4,19.4,0,0,1-2.86,2.73A27.51,27.51,0,0,1,26.62,53.75Z"/><path class="cls-2" d="M55.78,30.79a17.43,17.43,0,0,1,4.31,3.56,12.37,12.37,0,0,1,2.46,4.38,11.13,11.13,0,0,1,.32,5,15.3,15.3,0,0,1-2.08,5.42,14.84,14.84,0,0,1-4,4.5,11.33,11.33,0,0,1-4.72,2,12.52,12.52,0,0,1-5.05-.2,21.45,21.45,0,0,1-8-4.15,22.5,22.5,0,0,1-2.83-2.74l-.27-.3L39.38,45l.29.36a15.08,15.08,0,0,0,2.24,2.27,15.88,15.88,0,0,0,5.58,3,7.3,7.3,0,0,0,3.14.15,7.16,7.16,0,0,0,2.95-1.31,9.75,9.75,0,0,0,2.64-3,9.93,9.93,0,0,0,1.41-3.6,6.89,6.89,0,0,0-.23-3.15,7.45,7.45,0,0,0-1.63-2.75,12.8,12.8,0,0,0-2.93-2.35A26.48,26.48,0,0,0,50,33.08a15.75,15.75,0,0,0-3.25-1L46.28,32l1.64-4.23.35.07a18.69,18.69,0,0,1,3.78,1.11A27.87,27.87,0,0,1,55.78,30.79Z"/></g></mask></defs><path class="cls-3" d="M21.32,17a17.54,17.54,0,0,1,.93-5.52,12.23,12.23,0,0,1,2.56-4.31A11,11,0,0,1,29,4.41a15.26,15.26,0,0,1,5.73-.91A14.84,14.84,0,0,1,40.6,4.69a11.38,11.38,0,0,1,4.1,3.08,12.55,12.55,0,0,1,2.35,4.48,21.4,21.4,0,0,1,.39,9,23.12,23.12,0,0,1-.95,3.82l-.13.38-4.55-1.3L42,23.7a14.85,14.85,0,0,0,.85-3.08,16,16,0,0,0-.2-6.33,7.27,7.27,0,0,0-1.44-2.79,7.4,7.4,0,0,0-2.61-1.91,10.17,10.17,0,0,0-4-.77,10.19,10.19,0,0,0-3.82.59,6.83,6.83,0,0,0-2.61,1.77A7.54,7.54,0,0,0,26.62,14a13.24,13.24,0,0,0-.57,3.71,27.51,27.51,0,0,0,.13,3.19,16.09,16.09,0,0,0,.74,3.32l.15.47-4.48.7L22.47,25a20.08,20.08,0,0,1-.93-3.84A27.65,27.65,0,0,1,21.32,17Z"/><path class="cls-3" d="M26.62,53.75a17.67,17.67,0,0,1-5.24,2,12.27,12.27,0,0,1-5-.06,11,11,0,0,1-4.49-2.23,14.92,14.92,0,0,1-3.65-4.5,14.67,14.67,0,0,1-1.91-5.69,11.37,11.37,0,0,1,.61-5.1,12.38,12.38,0,0,1,2.71-4.27A21.33,21.33,0,0,1,17.21,29,22.6,22.6,0,0,1,21,27.94l.4-.09,1.15,4.6-.46.07a14.56,14.56,0,0,0-3.09.81,15.92,15.92,0,0,0-5.38,3.33,6.92,6.92,0,0,0-2,5.86,9.88,9.88,0,0,0,1.3,3.8,10.15,10.15,0,0,0,2.42,3,7,7,0,0,0,2.84,1.38,7.69,7.69,0,0,0,3.2,0,12.9,12.9,0,0,0,3.49-1.36,26,26,0,0,0,2.7-1.71A16.24,16.24,0,0,0,30,45.31l.33-.37,2.85,3.54-.23.26a19.4,19.4,0,0,1-2.86,2.73A27.51,27.51,0,0,1,26.62,53.75Z"/><path class="cls-3" d="M55.78,30.79a17.43,17.43,0,0,1,4.31,3.56,12.37,12.37,0,0,1,2.46,4.38,11.13,11.13,0,0,1,.32,5,15.3,15.3,0,0,1-2.08,5.42,14.84,14.84,0,0,1-4,4.5,11.33,11.33,0,0,1-4.72,2,12.52,12.52,0,0,1-5.05-.2,21.45,21.45,0,0,1-8-4.15,22.5,22.5,0,0,1-2.83-2.74l-.27-.3L39.38,45l.29.36a15.08,15.08,0,0,0,2.24,2.27,15.88,15.88,0,0,0,5.58,3,7.3,7.3,0,0,0,3.14.15,7.16,7.16,0,0,0,2.95-1.31,9.75,9.75,0,0,0,2.64-3,9.93,9.93,0,0,0,1.41-3.6,6.89,6.89,0,0,0-.23-3.15,7.45,7.45,0,0,0-1.63-2.75,12.8,12.8,0,0,0-2.93-2.35A26.48,26.48,0,0,0,50,33.08a15.75,15.75,0,0,0-3.25-1L46.28,32l1.64-4.23.35.07a18.69,18.69,0,0,1,3.78,1.11A27.87,27.87,0,0,1,55.78,30.79Z"/><g class="cls-4"><path class="cls-3" d="M25.25,31.58,23,27.47c6.72-3.64,16.41-3.79,23.05-.35l-2.16,4.15C38.64,28.54,30.62,28.67,25.25,31.58Z"/><path class="cls-3" d="M34.86,47.07C28.13,43.13,23.13,34.78,23,27.2l4.67-.08c.11,5.95,4.22,12.8,9.55,15.92Z"/><path class="cls-3" d="M34.55,47.23l-2.31-4.06c5.27-3,9.13-9.93,9-16.13l4.67-.12C46.08,34.84,41.32,43.38,34.55,47.23Z"/></g><g class="cls-5"><circle class="cls-6" cx="34.57" cy="33.85" r="26"/></g></svg>