<svg id="visual" viewBox="0 0 960 540" width="960" height="540" xmlns="http://www.w3.org/2000/svg" xmlns:xlink="http://www.w3.org/1999/xlink" version="1.1"><rect x="0" y="0" width="960" height="540" fill="#001220"></rect><defs><linearGradient id="grad1_0" x1="43.8%" y1="100%" x2="100%" y2="0%"><stop offset="14.444444444444446%" stop-color="#001220" stop-opacity="1"></stop><stop offset="85.55555555555554%" stop-color="#001220" stop-opacity="1"></stop></linearGradient></defs><defs><linearGradient id="grad2_0" x1="0%" y1="100%" x2="56.3%" y2="0%"><stop offset="14.444444444444446%" stop-color="#001220" stop-opacity="1"></stop><stop offset="85.55555555555554%" stop-color="#001220" stop-opacity="1"></stop></linearGradient></defs><g transform="translate(960, 540)"><path d="M-513 0C-512.6 -46.8 -512.2 -93.6 -493.6 -132.3C-475 -170.9 -438.2 -201.3 -416.6 -240.5C-394.9 -279.7 -388.4 -327.6 -362.7 -362.7C-337.1 -397.9 -292.3 -420.3 -248.5 -430.4C-204.7 -440.5 -161.9 -438.4 -120.6 -450.1C-79.4 -461.8 -39.7 -487.4 0 -513L0 0Z" fill="#eeebe5"></path></g><g transform="translate(0, 0)"><path d="M513 0C509.2 44.2 505.4 88.3 495.5 132.8C485.6 177.2 469.7 222 439.9 254C410.2 286 366.7 305.4 332.3 332.3C298 359.3 272.8 393.8 239 414C205.2 434.1 162.9 439.9 121.6 454C80.4 468.1 40.2 490.5 0 513L0 0Z" fill="#eeebe5"></path></g></svg>